<svg height="512" viewBox="0 0 64 64" width="512" xmlns="http://www.w3.org/2000/svg" xmlns:xlink="http://www.w3.org/1999/xlink"><linearGradient id="gradient_ice" gradientUnits="userSpaceOnUse" x1="-2.386" x2="68.231" y1="69.434" y2="-.025"><stop offset="0" stop-color="#fff200"/><stop offset="1" stop-color="#cd118c"/></linearGradient><path d="m61 35h-5v-24a1 1 0 0 0 -1-1h-1v-7a1 1 0 0 0 -1-1h-35a5 5 0 0 0 -5 5v28.08a6.987 6.987 0 0 0 -3.89 11.92h-.11a7 7 0 0 0 0 14h47a1 1 0 0 0 1-1v-11h4a1 1 0 0 0 1-1v-12a1 1 0 0 0 -1-1zm-32-31h23v6h-23zm16 8v8.7l-2.17-3.25a.99.99 0 0 0 -1.66 0l-2.17 3.25v-8.7zm-23-8h5v6h-5zm-4 0h2v6h-2a3 3 0 0 1 0-6zm-3 6.97a4.924 4.924 0 0 0 3 1.03h19v12a1.008 1.008 0 0 0 .71.96.992.992 0 0 0 1.12-.41l3.17-4.75 3.17 4.75a.984.984 0 0 0 .83.45.967.967 0 0 0 .29-.04 1.008 1.008 0 0 0 .71-.96v-12h7v23h-39zm-5 48.03h-1a5 5 0 0 1 0-10h1zm-1-17a5 5 0 0 1 5-5h1v10h-1a5 5 0 0 1 -5-5zm8 17h-5v-10h5zm0-12v-10h5v10zm38 12h-36v-10h36zm5-12h-36v-10h36z" fill="url(#gradient_ice)"/></svg>